# xmcd
#
# Track frame offsets: 
#        150
#        23512
#        46236
#        72697
#        102191
#        132668
#        156470
#        180828
#        203840
#        229015
#
# Disc length: 3414 seconds
#
# Revision: 0
# Processed by: cddbd v1.5.2PL0 Copyright (c) Steve Scherf et al.
# Submitted via: ExactAudioCopy v1.0b3
#
DISCID=840d540a
DTITLE=Manh Quynh - 10 Tinh Ca Linh
DYEAR=1997
DGENRE=
TTITLE0=Rung la thap
TTITLE1=Nguoi ve don vi moi
TTITLE2=Quan nua khuya
TTITLE3=Muoi nam tai ngo
TTITLE4=Tam su nguoi linh tre
TTITLE5=Mot chuyen bay dem
TTITLE6=hanh trang gia tu
TTITLE7=Tinh thu cua linh
TTITLE8=Chin thang quan truong
TTITLE9=Thuong ve quan tro
EXTD=
EXTT0=
EXTT1=
EXTT2=
EXTT3=
EXTT4=
EXTT5=
EXTT6=
EXTT7=
EXTT8=
EXTT9=
PLAYORDER=
